<?xml version="1.0" encoding="UTF-8"?>
<svg id="_0" data-name="0" xmlns="http://www.w3.org/2000/svg" viewBox="0 0 65.76 50.5">
  <defs>
    <style>
      .cls-1 {
        fill: none;
        stroke: #000;
        stroke-linecap: round;
        stroke-linejoin: round;
        stroke-width: .5px;
      }
    </style>
  </defs>
  <g id="ARC">
    <path class="cls-1" d="M57.19,19.42c-1.13-4.71-3.6-8.98-7.11-12.31"/>
  </g>
  <g id="ELLIPSE">
    <path class="cls-1" d="M57.19,19.42c4.26,2.93,7.97,1.48,8.3-3.24s-2.86-10.92-7.12-13.85-7.97-1.48-8.3,3.24c-.03.49-.03,1,.01,1.54"/>
  </g>
  <g id="ARC-2" data-name="ARC">
    <path class="cls-1" d="M54.53,37.75c6.9-11.96,2.81-27.25-9.15-34.15-3.8-2.19-8.11-3.35-12.5-3.35"/>
  </g>
  <g id="LINE">
    <line class="cls-1" x1="41.74" y1="10.23" x2="41.74" y2="8.77"/>
  </g>
  <g id="ELLIPSE-2" data-name="ELLIPSE">
    <path class="cls-1" d="M41.74,8.77c-3.64-2.77-10.56-3.35-15.45-1.29-.87.36-1.63.8-2.27,1.29"/>
  </g>
  <g id="LINE-2" data-name="LINE">
    <line class="cls-1" x1="41.74" y1="8.77" x2="41.74" y2="10.23"/>
  </g>
  <g id="LINE-3" data-name="LINE">
    <line class="cls-1" x1="44.04" y1="23.84" x2="43.96" y2="22.92"/>
  </g>
  <g id="ELLIPSE-3" data-name="ELLIPSE">
    <path class="cls-1" d="M24.02,10.23c3.64,2.77,10.56,3.35,15.45,1.29.87-.36,1.63-.8,2.27-1.29"/>
  </g>
  <g id="LINE-4" data-name="LINE">
    <line class="cls-1" x1="43.96" y1="22.92" x2="44.04" y2="23.84"/>
  </g>
  <g id="ELLIPSE-4" data-name="ELLIPSE">
    <ellipse class="cls-1" cx="32.88" cy="6.5" rx="11.04" ry="6.25"/>
  </g>
  <g id="ARC-3" data-name="ARC">
    <path class="cls-1" d="M57.83,23.6c-.09-1.41-.31-2.8-.63-4.18"/>
  </g>
  <g id="ELLIPSE-5" data-name="ELLIPSE">
    <path class="cls-1" d="M43.91,6.15c-1.01.46-1.75,1.36-2.16,2.62"/>
  </g>
  <g id="ELLIPSE-6" data-name="ELLIPSE">
    <path class="cls-1" d="M41.74,10.23c1.54-1.17,2.31-2.62,2.16-4.07"/>
  </g>
  <g id="ELLIPSE-7" data-name="ELLIPSE">
    <path class="cls-1" d="M52.26,1.31c-1.6.92-2.39,3.04-2.18,5.8"/>
  </g>
  <g id="LINE-5" data-name="LINE">
    <line class="cls-1" x1="33.2" y1="22.94" x2="42.97" y2="22.08"/>
  </g>
  <g id="ELLIPSE-8" data-name="ELLIPSE">
    <path class="cls-1" d="M57.19,19.42c2.28,1.57,4.51,1.94,6.11,1.01"/>
  </g>
  <g id="ARC-4" data-name="ARC">
    <path class="cls-1" d="M43.96,22.92c-.04-.51-.49-.88-1-.84"/>
  </g>
  <g id="ARC-5" data-name="ARC">
    <path class="cls-1" d="M43.96,22.92c-.04-.51-.49-.88-1-.84"/>
  </g>
  <g id="ELLIPSE-9" data-name="ELLIPSE">
    <path class="cls-1" d="M43.91,6.15c-1.01.46-1.75,1.36-2.16,2.62"/>
  </g>
  <g id="LINE-6" data-name="LINE">
    <line class="cls-1" x1="42.97" y1="22.08" x2="33.2" y2="22.94"/>
  </g>
  <g id="ARC-6" data-name="ARC">
    <path class="cls-1" d="M50.08,7.11c-1.02-.97-2.13-1.85-3.3-2.64"/>
  </g>
  <g id="ELLIPSE-10" data-name="ELLIPSE">
    <path class="cls-1" d="M43.91,6.15c-.34-3.45-5.55-6.09-11.64-5.89-5.62.18-10.1,2.71-10.41,5.89"/>
  </g>
  <g id="ELLIPSE-11" data-name="ELLIPSE">
    <path class="cls-1" d="M41.74,8.77c-.34-.26-.72-.51-1.13-.73"/>
  </g>
  <g id="CIRCLE">
    <circle class="cls-1" cx="32.88" cy="17.9" r="3.22"/>
  </g>
  <g id="LINE-7" data-name="LINE">
    <line class="cls-1" x1="35.79" y1="40.69" x2="33.38" y2="31.71"/>
  </g>
  <g id="ARC-7" data-name="ARC">
    <path class="cls-1" d="M35.79,40.69c.11.4.47.68.89.68"/>
  </g>
  <g id="LINE-8" data-name="LINE">
    <line class="cls-1" x1="33.38" y1="31.71" x2="35.79" y2="40.69"/>
  </g>
  <g id="ELLIPSE-12" data-name="ELLIPSE">
    <path class="cls-1" d="M51.58,25.81c1.29.27,2.45.08,3.35-.56"/>
  </g>
  <g id="CIRCLE-2" data-name="CIRCLE">
    <circle class="cls-1" cx="32.88" cy="17.9" r="3.22"/>
  </g>
  <g id="LINE-9" data-name="LINE">
    <line class="cls-1" x1="35.99" y1="30.77" x2="35.53" y2="25.51"/>
  </g>
  <g id="ELLIPSE-13" data-name="ELLIPSE">
    <ellipse class="cls-1" cx="49.12" cy="34.63" rx="11.04" ry="6.25" transform="translate(-5.43 59.85) rotate(-60)"/>
  </g>
  <g id="ELLIPSE-14" data-name="ELLIPSE">
    <path class="cls-1" d="M51.58,25.81c1.29.27,2.45.08,3.35-.56"/>
  </g>
  <g id="ARC-8" data-name="ARC">
    <path class="cls-1" d="M32.88,50.25c8.93,0,17.18-4.76,21.65-12.5"/>
  </g>
  <g id="LINE-10" data-name="LINE">
    <line class="cls-1" x1="35.53" y1="25.51" x2="35.99" y2="30.77"/>
  </g>
  <g id="ELLIPSE-15" data-name="ELLIPSE">
    <path class="cls-1" d="M50.32,25.09c-4.22,1.77-8.18,7.47-8.84,12.74-.12.93-.12,1.81-.02,2.61"/>
  </g>
  <g id="LINE-11" data-name="LINE">
    <line class="cls-1" x1="36.68" y1="41.37" x2="37.63" y2="41.37"/>
  </g>
  <g id="ARC-9" data-name="ARC">
    <path class="cls-1" d="M43.21,24.83c.51-.04.88-.49.84-1"/>
  </g>
  <g id="LINE-12" data-name="LINE">
    <line class="cls-1" x1="43.21" y1="24.83" x2="35.53" y2="25.51"/>
  </g>
  <g id="ARC-10" data-name="ARC">
    <path class="cls-1" d="M43.21,24.83c.51-.04.88-.49.84-1"/>
  </g>
  <g id="ARC-11" data-name="ARC">
    <path class="cls-1" d="M37.63,41.37c.51,0,.92-.41.92-.92,0-.08-.01-.16-.03-.24"/>
  </g>
  <g id="ELLIPSE-16" data-name="ELLIPSE">
    <path class="cls-1" d="M24.3,40.44c.58-4.54-2.38-10.81-6.61-14.02-.75-.57-1.51-1.01-2.25-1.33"/>
  </g>
  <g id="LINE-13" data-name="LINE">
    <line class="cls-1" x1="38.52" y1="40.21" x2="35.99" y2="30.77"/>
  </g>
  <g id="LINE-14" data-name="LINE">
    <line class="cls-1" x1="29.77" y1="30.77" x2="30.23" y2="25.51"/>
  </g>
  <g id="ELLIPSE-17" data-name="ELLIPSE">
    <path class="cls-1" d="M41.46,40.44c.25,1.92,1.11,3.31,2.45,3.91"/>
  </g>
  <g id="ELLIPSE-18" data-name="ELLIPSE">
    <path class="cls-1" d="M14.18,25.81c-.58,4.54,2.38,10.81,6.61,14.02.75.57,1.51,1.01,2.25,1.33"/>
  </g>
  <g id="LINE-15" data-name="LINE">
    <line class="cls-1" x1="35.99" y1="30.77" x2="38.52" y2="40.21"/>
  </g>
  <g id="LINE-16" data-name="LINE">
    <line class="cls-1" x1="37.63" y1="41.37" x2="36.68" y2="41.37"/>
  </g>
  <g id="LINE-17" data-name="LINE">
    <line class="cls-1" x1="51.58" y1="25.81" x2="50.32" y2="25.09"/>
  </g>
  <g id="LINE-18" data-name="LINE">
    <line class="cls-1" x1="35.53" y1="25.51" x2="43.21" y2="24.83"/>
  </g>
  <g id="ELLIPSE-19" data-name="ELLIPSE">
    <path class="cls-1" d="M43.91,44.35c.11-1.1-.3-2.2-1.19-3.18"/>
  </g>
  <g id="LINE-19" data-name="LINE">
    <line class="cls-1" x1="41.46" y1="40.44" x2="42.72" y2="41.16"/>
  </g>
  <g id="ELLIPSE-20" data-name="ELLIPSE">
    <path class="cls-1" d="M42.72,41.16c4.22-1.77,8.18-7.47,8.84-12.74.12-.93.12-1.81.02-2.61"/>
  </g>
  <g id="ELLIPSE-21" data-name="ELLIPSE">
    <path class="cls-1" d="M11.12,25.06c-1.7.98-2.49,3.33-2.12,6.33"/>
  </g>
  <g id="ELLIPSE-22" data-name="ELLIPSE">
    <path class="cls-1" d="M43.91,44.35c.11-1.1-.3-2.2-1.19-3.18"/>
  </g>
  <g id="ELLIPSE-23" data-name="ELLIPSE">
    <path class="cls-1" d="M15.62,42.86c4.23,3.19,8.12,2.09,8.68-2.46s-2.41-10.82-6.65-14.01c-2.41-1.82-4.83-2.31-6.54-1.33"/>
  </g>
  <g id="ELLIPSE-24" data-name="ELLIPSE">
    <path class="cls-1" d="M42.72,41.16c4.22-1.77,8.18-7.47,8.84-12.74.12-.93.12-1.81.02-2.61"/>
  </g>
  <g id="LINE-20" data-name="LINE">
    <line class="cls-1" x1="50.32" y1="25.09" x2="51.58" y2="25.81"/>
  </g>
  <g id="LINE-21" data-name="LINE">
    <line class="cls-1" x1="32.56" y1="22.94" x2="22.79" y2="22.08"/>
  </g>
  <g id="ELLIPSE-25" data-name="ELLIPSE">
    <path class="cls-1" d="M10.83,25.25c-1.51,1.08-2.18,3.32-1.83,6.14"/>
  </g>
  <g id="ARC-12" data-name="ARC">
    <path class="cls-1" d="M21.72,23.84c-.04.51.33.95.84,1"/>
  </g>
  <g id="ELLIPSE-26" data-name="ELLIPSE">
    <path class="cls-1" d="M15.68,43.39c-.01-.17-.03-.35-.05-.53"/>
  </g>
  <g id="ARC-13" data-name="ARC">
    <path class="cls-1" d="M7.93,26.9c.09,1.41.31,2.8.63,4.18"/>
  </g>
  <g id="LINE-22" data-name="LINE">
    <line class="cls-1" x1="22.79" y1="22.08" x2="32.56" y2="22.94"/>
  </g>
  <g id="ARC-14" data-name="ARC">
    <path class="cls-1" d="M35.79,40.69c.11.4.47.68.89.68"/>
  </g>
  <g id="LINE-23" data-name="LINE">
    <line class="cls-1" x1="42.72" y1="41.16" x2="41.46" y2="40.44"/>
  </g>
  <g id="LINE-24" data-name="LINE">
    <line class="cls-1" x1="15.44" y1="25.09" x2="14.18" y2="25.81"/>
  </g>
  <g id="ELLIPSE-27" data-name="ELLIPSE">
    <path class="cls-1" d="M14.18,25.81c-.58,4.54,2.38,10.81,6.61,14.02.75.57,1.51,1.01,2.25,1.33"/>
  </g>
  <g id="LINE-25" data-name="LINE">
    <line class="cls-1" x1="24.02" y1="10.23" x2="24.02" y2="8.77"/>
  </g>
  <g id="ELLIPSE-28" data-name="ELLIPSE">
    <path class="cls-1" d="M43.91,44.35c3.15,1.43,8.04-1.76,10.92-7.13,2.66-4.95,2.7-10.11.1-11.97"/>
  </g>
  <g id="LINE-26" data-name="LINE">
    <line class="cls-1" x1="30.23" y1="25.51" x2="29.77" y2="30.77"/>
  </g>
  <g id="ARC-15" data-name="ARC">
    <path class="cls-1" d="M37.63,41.37c.51,0,.92-.41.92-.92,0-.08-.01-.16-.03-.24"/>
  </g>
  <g id="ARC-16" data-name="ARC">
    <path class="cls-1" d="M15.68,43.39c4.63,4.39,10.78,6.85,17.16,6.86"/>
  </g>
  <g id="LINE-27" data-name="LINE">
    <line class="cls-1" x1="21.8" y1="22.92" x2="21.72" y2="23.84"/>
  </g>
  <g id="ELLIPSE-29" data-name="ELLIPSE">
    <path class="cls-1" d="M15.44,25.09c-1.79-.75-3.42-.69-4.61.16"/>
  </g>
  <g id="ELLIPSE-30" data-name="ELLIPSE">
    <path class="cls-1" d="M15.62,42.86c2.26,1.71,4.54,2.25,6.23,1.48"/>
  </g>
  <g id="ELLIPSE-31" data-name="ELLIPSE">
    <path class="cls-1" d="M54.93,25.25c-1.19-.85-2.82-.91-4.61-.16"/>
  </g>
  <g id="LINE-28" data-name="LINE">
    <line class="cls-1" x1="30.23" y1="25.51" x2="22.55" y2="24.83"/>
  </g>
  <g id="ELLIPSE-32" data-name="ELLIPSE">
    <path class="cls-1" d="M21.86,6.15c-.14,1.46.62,2.9,2.16,4.07"/>
  </g>
  <g id="LINE-29" data-name="LINE">
    <line class="cls-1" x1="24.02" y1="8.77" x2="24.02" y2="10.23"/>
  </g>
  <g id="ARC-17" data-name="ARC">
    <path class="cls-1" d="M7.93,26.9c.09,1.41.31,2.8.63,4.18"/>
  </g>
  <g id="ARC-18" data-name="ARC">
    <path class="cls-1" d="M32.88.25C19.07.25,7.88,11.44,7.88,25.25c0,.55.02,1.1.05,1.65"/>
  </g>
  <g id="ARC-19" data-name="ARC">
    <path class="cls-1" d="M22.79,22.08c-.51-.04-.95.33-1,.84"/>
  </g>
  <g id="ARC-20" data-name="ARC">
    <path class="cls-1" d="M29.08,41.37c.42,0,.78-.28.89-.68"/>
  </g>
  <g id="SPLINE">
    <path class="cls-1" d="M32.38,31.71c.43-.06.57-.06,1,0"/>
  </g>
  <g id="ELLIPSE-33" data-name="ELLIPSE">
    <path class="cls-1" d="M15.68,43.39c-.01-.17-.03-.35-.05-.53"/>
  </g>
  <g id="LINE-30" data-name="LINE">
    <line class="cls-1" x1="28.13" y1="41.37" x2="29.08" y2="41.37"/>
  </g>
  <g id="LINE-31" data-name="LINE">
    <line class="cls-1" x1="29.97" y1="40.69" x2="32.38" y2="31.71"/>
  </g>
  <g id="ELLIPSE-34" data-name="ELLIPSE">
    <path class="cls-1" d="M32.84,50.25s.03,0,.04,0"/>
  </g>
  <g id="ARC-21" data-name="ARC">
    <path class="cls-1" d="M21.72,23.84c-.04.51.33.95.84,1"/>
  </g>
  <g id="ELLIPSE-35" data-name="ELLIPSE">
    <path class="cls-1" d="M8.57,31.08c-4.26-2.93-7.97-1.48-8.3,3.24s2.86,10.92,7.12,13.85,7.97,1.48,8.3-3.24c.03-.49.03-1-.01-1.54"/>
  </g>
  <g id="LINE-32" data-name="LINE">
    <line class="cls-1" x1="29.77" y1="30.77" x2="27.24" y2="40.21"/>
  </g>
  <g id="ARC-22" data-name="ARC">
    <path class="cls-1" d="M8.57,31.08c.56,2.34,1.46,4.59,2.66,6.67"/>
  </g>
  <g id="LINE-33" data-name="LINE">
    <line class="cls-1" x1="22.55" y1="24.83" x2="30.23" y2="25.51"/>
  </g>
  <g id="LINE-34" data-name="LINE">
    <line class="cls-1" x1="14.18" y1="25.81" x2="15.44" y2="25.09"/>
  </g>
  <g id="ELLIPSE-36" data-name="ELLIPSE">
    <path class="cls-1" d="M24.02,8.77c-.41-1.26-1.16-2.16-2.16-2.62"/>
  </g>
  <g id="ELLIPSE-37" data-name="ELLIPSE">
    <path class="cls-1" d="M21.86,44.35c1.34-.61,2.2-1.99,2.45-3.91"/>
  </g>
  <g id="ELLIPSE-38" data-name="ELLIPSE">
    <path class="cls-1" d="M10.83,25.25c.9.64,2.06.84,3.35.56"/>
  </g>
  <g id="ELLIPSE-39" data-name="ELLIPSE">
    <path class="cls-1" d="M15.62,42.86c-.52-4.23-3.22-8.91-6.63-11.48"/>
  </g>
  <g id="LINE-35" data-name="LINE">
    <line class="cls-1" x1="21.72" y1="23.84" x2="21.8" y2="22.92"/>
  </g>
  <g id="ELLIPSE-40" data-name="ELLIPSE">
    <path class="cls-1" d="M13.5,49.19c1.6-.92,2.39-3.04,2.18-5.8"/>
  </g>
  <g id="ELLIPSE-41" data-name="ELLIPSE">
    <path class="cls-1" d="M10.83,25.25c.9.64,2.06.84,3.35.56"/>
  </g>
  <g id="ARC-23" data-name="ARC">
    <path class="cls-1" d="M11.23,37.75c1.2,2.08,2.7,3.98,4.45,5.64"/>
  </g>
  <g id="LINE-36" data-name="LINE">
    <line class="cls-1" x1="11.12" y1="25.06" x2="7.93" y2="26.9"/>
  </g>
  <g id="ARC-24" data-name="ARC">
    <path class="cls-1" d="M27.24,40.21c-.13.49.16,1,.65,1.13.08.02.16.03.24.03"/>
  </g>
  <g id="LINE-37" data-name="LINE">
    <line class="cls-1" x1="27.24" y1="40.21" x2="29.77" y2="30.77"/>
  </g>
  <g id="ELLIPSE-42" data-name="ELLIPSE">
    <path class="cls-1" d="M24.02,8.77c-.41-1.26-1.16-2.16-2.16-2.62"/>
  </g>
  <g id="ELLIPSE-43" data-name="ELLIPSE">
    <path class="cls-1" d="M9,31.39c.25,2.06,1.04,4.29,2.23,6.36"/>
  </g>
  <g id="LINE-38" data-name="LINE">
    <line class="cls-1" x1="7.93" y1="26.9" x2="11.12" y2="25.06"/>
  </g>
  <g id="ARC-25" data-name="ARC">
    <path class="cls-1" d="M22.79,22.08c-.51-.04-.95.33-1,.84"/>
  </g>
  <g id="LINE-39" data-name="LINE">
    <line class="cls-1" x1="32.38" y1="31.71" x2="29.97" y2="40.69"/>
  </g>
  <g id="ARC-26" data-name="ARC">
    <path class="cls-1" d="M32.56,22.94c.21.02.43.02.64,0"/>
  </g>
  <g id="ELLIPSE-44" data-name="ELLIPSE">
    <path class="cls-1" d="M9,31.39c-.14-.11-.29-.21-.43-.31"/>
  </g>
  <g id="ELLIPSE-45" data-name="ELLIPSE">
    <path class="cls-1" d="M11.23,37.75c1.19,2.07,2.74,3.86,4.4,5.11"/>
  </g>
  <g id="ELLIPSE-46" data-name="ELLIPSE">
    <path class="cls-1" d="M9,31.39c.52,4.23,3.22,8.91,6.63,11.48"/>
  </g>
  <g id="ELLIPSE-47" data-name="ELLIPSE">
    <path class="cls-1" d="M9,31.39c-.14-.11-.29-.21-.43-.31"/>
  </g>
  <g id="ARC-27" data-name="ARC">
    <path class="cls-1" d="M32.56,22.94c.21.02.43.02.64,0"/>
  </g>
  <g id="ARC-28" data-name="ARC">
    <path class="cls-1" d="M27.24,40.21c-.13.49.16,1,.65,1.13.08.02.16.03.24.03"/>
  </g>
  <g id="ELLIPSE-48" data-name="ELLIPSE">
    <path class="cls-1" d="M23.04,41.16c-.88.98-1.29,2.08-1.19,3.18"/>
  </g>
  <g id="LINE-40" data-name="LINE">
    <line class="cls-1" x1="23.04" y1="41.16" x2="24.3" y2="40.44"/>
  </g>
  <g id="ARC-29" data-name="ARC">
    <path class="cls-1" d="M29.08,41.37c.42,0,.78-.28.89-.68"/>
  </g>
  <g id="SPLINE-2" data-name="SPLINE">
    <path class="cls-1" d="M33.38,31.71c-.43-.06-.57-.06-1,0"/>
  </g>
  <g id="LINE-41" data-name="LINE">
    <line class="cls-1" x1="24.3" y1="40.44" x2="23.04" y2="41.16"/>
  </g>
  <g id="ARC-30" data-name="ARC">
    <path class="cls-1" d="M8.57,31.08c1.13,4.71,3.6,8.98,7.11,12.31"/>
  </g>
  <g id="ELLIPSE-49" data-name="ELLIPSE">
    <path class="cls-1" d="M15.62,42.86c-.52-4.23-3.22-8.91-6.63-11.48"/>
  </g>
  <g id="LINE-42" data-name="LINE">
    <line class="cls-1" x1="29.08" y1="41.37" x2="28.13" y2="41.37"/>
  </g>
  <g id="ELLIPSE-50" data-name="ELLIPSE">
    <path class="cls-1" d="M23.04,41.16c-.88.98-1.29,2.08-1.19,3.18"/>
  </g>
  <g id="ELLIPSE-51" data-name="ELLIPSE">
    <path class="cls-1" d="M8.57,31.08c-2.28-1.57-4.51-1.94-6.11-1.01"/>
  </g>
  <g id="ARC-31" data-name="ARC">
    <path class="cls-1" d="M15.68,43.39c1.02.97,2.13,1.85,3.3,2.64"/>
  </g>
  <g id="LINE-43" data-name="LINE">
    <line class="cls-1" x1="2.46" y1="30.06" x2="11.12" y2="25.06"/>
  </g>
  <g id="LINE-44" data-name="LINE">
    <line class="cls-1" x1="13.5" y1="49.19" x2="22.16" y2="44.19"/>
  </g>
  <g id="LINE-45" data-name="LINE">
    <line class="cls-1" x1="46.78" y1="4.47" x2="52.26" y2="1.31"/>
  </g>
  <g id="LINE-46" data-name="LINE">
    <line class="cls-1" x1="57.83" y1="23.6" x2="63.3" y2="20.44"/>
  </g>
  <g id="LINE-47" data-name="LINE">
    <line class="cls-1" x1="32.45" y1="12.75" x2="40.61" y2="8.04"/>
  </g>
  <g id="LINE-48" data-name="LINE">
    <line class="cls-1" x1="43.6" y1="6.31" x2="43.9" y2="6.14"/>
  </g>
  <g id="LINE-49" data-name="LINE">
    <line class="cls-1" x1="40.61" y1="8.04" x2="43.6" y2="6.31"/>
  </g>
  <g id="LINE-50" data-name="LINE">
    <line class="cls-1" x1="43.5" y1="31.87" x2="51.65" y2="27.16"/>
  </g>
  <g id="LINE-51" data-name="LINE">
    <line class="cls-1" x1="54.64" y1="25.44" x2="54.95" y2="25.26"/>
  </g>
  <g id="LINE-52" data-name="LINE">
    <line class="cls-1" x1="51.65" y1="27.16" x2="54.64" y2="25.44"/>
  </g>
  <g id="ELLIPSE-52" data-name="ELLIPSE">
    <path class="cls-1" d="M40.61,8.04c-4.36-2.42-11.35-2.38-15.62.09-.35.2-.68.42-.98.65"/>
  </g>
</svg>