<?xml version="1.0" encoding="UTF-8"?>
<svg xmlns="http://www.w3.org/2000/svg" viewBox="0 0 62.03 50.5">
  <!-- Monochrome header logo (amber strokes for high-contrast mode, transparent background) -->
  <g fill="none" stroke="#ffb000" stroke-width="1.5" stroke-linecap="square" stroke-linejoin="miter">
    <circle cx="31.01" cy="25.25" r="25" />
    <ellipse cx="31.01" cy="8" rx="12.17" ry="6.06" />
    <ellipse cx="16.08" cy="33.87" rx="6.06" ry="12.17" transform="translate(-14.78 12.58) rotate(-30)" />
    <ellipse cx="45.95" cy="33.87" rx="12.17" ry="6.06" transform="translate(-6.36 56.73) rotate(-60)" />
    <ellipse cx="8.28" cy="38.37" rx="6.06" ry="12.17" transform="translate(-18.08 9.28) rotate(-30)" />
    <path d="M23.89,12.91c.86-4.75-.86-7.72-4.15-7.19" />
    <path d="M8.47,25.25c1.19,3.12,4.61,3.12,8.3,0" />
    <path d="M42.29,5.72c-3.29-.53-5.01,2.44-4.15,7.19" />
    <path d="M55.87,22.56c4.28,1.86,6.8-1.31,5.62-7.08s-5.59-11.94-9.87-13.79c-3.15-1.36-5.46-.03-5.85,3.38" />
    <path d="M45.26,25.25c2.64,2.24,5.23,2.92,6.91,1.83" />
    <path d="M23.89,37.59c-4.54,1.63-6.26,4.6-4.15,7.19" />
    <path d="M42.29,44.78c2.11-2.59.39-5.56-4.15-7.19" />
    <line x1="14.23" y1="48.98" x2="22.3" y2="44.33" />
    <line x1="2.07" y1="27.92" x2="10.13" y2="23.26" />
    <line x1="47.53" y1="1.67" x2="47.8" y2="1.52" stroke-dasharray="1.5 1" />
    <line x1="43.85" y1="3.8" x2="47.53" y2="1.67" />
    <line x1="26.74" y1="13.68" x2="40.01" y2="6.02" />
    <line x1="38.9" y1="34.74" x2="52.17" y2="27.08" />
    <line x1="56.01" y1="24.86" x2="59.96" y2="22.58" />
    <path d="M52.17,27.08c.61-.4,1.08-1.02,1.39-1.83" />
    <line x1="36.65" y1="40.21" x2="34.12" y2="30.77" />
    <line x1="33.66" y1="25.51" x2="41.34" y2="24.83" />
    <path d="M33.92,40.69c.11.4.47.68.89.68" />
    <line x1="19.85" y1="23.84" x2="19.93" y2="22.92" />
    <circle cx="31.01" cy="17.9" r="3.22" />
    <path d="M35.76,41.37c.51,0,.92-.41.92-.92,0-.08-.01-.16-.03-.24" />
    <path d="M20.93,22.08c-.51-.04-.95.33-1,.84" />
    <path d="M31.52,31.71c-.43-.06-.57-.06-1,0" />
    <path d="M30.69,22.94c.21.02.43.02.64,0" />
    <line x1="34.12" y1="30.77" x2="33.66" y2="25.51" />
    <line x1="42.1" y1="22.92" x2="42.18" y2="23.84" />
    <line x1="34.81" y1="41.37" x2="35.76" y2="41.37" />
    <line x1="20.93" y1="22.08" x2="30.69" y2="22.94" />
    <line x1="28.37" y1="25.51" x2="27.91" y2="30.77" />
    <path d="M19.85,23.84c-.04.51.33.95.84,1" />
    <line x1="28.11" y1="40.69" x2="30.51" y2="31.71" />
    <path d="M41.34,24.83c.51-.04.88-.49.84-1" />
    <line x1="27.91" y1="30.77" x2="25.37" y2="40.21" />
    <line x1="20.69" y1="24.83" x2="28.37" y2="25.51" />
    <path d="M25.37,40.21c-.13.49.16,1,.65,1.13.08.02.16.03.24.03" />
    <line x1="31.33" y1="22.94" x2="41.1" y2="22.08" />
    <line x1="26.26" y1="41.37" x2="27.22" y2="41.37" />
    <path d="M27.22,41.37c.42,0,.78-.28.89-.68" />
    <path d="M42.1,22.92c-.04-.51-.49-.88-1-.84" />
    <line x1="25.37" y1="40.21" x2="27.91" y2="30.77" />
    <line x1="33.92" y1="40.69" x2="31.52" y2="31.71" />
  </g>
</svg>
