<?xml version="1.0" encoding="UTF-8"?>
<svg id="_0" data-name="0" xmlns="http://www.w3.org/2000/svg" viewBox="0 0 62.03 50.5">
  <defs>
    <style>
      .cls-1 {
        stroke-dasharray: .5 .25;
      }

      .cls-1, .cls-2 {
        fill: none;
        stroke: #000;
        stroke-linecap: round;
        stroke-linejoin: round;
        stroke-width: .5px;
      }
    </style>
  </defs>
  <g id="CIRCLE">
    <circle class="cls-2" cx="31.01" cy="25.25" r="25"/>
  </g>
  <g id="ELLIPSE">
    <ellipse class="cls-2" cx="31.01" cy="8" rx="12.17" ry="6.06"/>
  </g>
  <g id="ELLIPSE-2" data-name="ELLIPSE">
    <ellipse class="cls-2" cx="16.08" cy="33.87" rx="6.06" ry="12.17" transform="translate(-14.78 12.58) rotate(-30)"/>
  </g>
  <g id="ELLIPSE-3" data-name="ELLIPSE">
    <ellipse class="cls-2" cx="45.95" cy="33.87" rx="12.17" ry="6.06" transform="translate(-6.36 56.73) rotate(-60)"/>
  </g>
  <g id="ELLIPSE-4" data-name="ELLIPSE">
    <ellipse class="cls-2" cx="8.28" cy="38.37" rx="6.06" ry="12.17" transform="translate(-18.08 9.28) rotate(-30)"/>
  </g>
  <g id="ELLIPSE-5" data-name="ELLIPSE">
    <path class="cls-2" d="M23.89,12.91c.86-4.75-.86-7.72-4.15-7.19"/>
  </g>
  <g id="ELLIPSE-6" data-name="ELLIPSE">
    <path class="cls-2" d="M8.47,25.25c1.19,3.12,4.61,3.12,8.3,0"/>
  </g>
  <g id="ELLIPSE-7" data-name="ELLIPSE">
    <path class="cls-2" d="M42.29,5.72c-3.29-.53-5.01,2.44-4.15,7.19"/>
  </g>
  <g id="ELLIPSE-8" data-name="ELLIPSE">
    <path class="cls-2" d="M55.87,22.56c4.28,1.86,6.8-1.31,5.62-7.08s-5.59-11.94-9.87-13.79c-3.15-1.36-5.46-.03-5.85,3.38"/>
  </g>
  <g id="ELLIPSE-9" data-name="ELLIPSE">
    <path class="cls-2" d="M45.26,25.25c2.64,2.24,5.23,2.92,6.91,1.83"/>
  </g>
  <g id="ELLIPSE-10" data-name="ELLIPSE">
    <path class="cls-2" d="M23.89,37.59c-4.54,1.63-6.26,4.6-4.15,7.19"/>
  </g>
  <g id="ELLIPSE-11" data-name="ELLIPSE">
    <path class="cls-2" d="M42.29,44.78c2.11-2.59.39-5.56-4.15-7.19"/>
  </g>
  <g id="LINE">
    <line class="cls-2" x1="14.23" y1="48.98" x2="22.3" y2="44.33"/>
  </g>
  <g id="LINE-2" data-name="LINE">
    <line class="cls-2" x1="2.07" y1="27.92" x2="10.13" y2="23.26"/>
  </g>
  <g id="LINE-3" data-name="LINE">
    <line class="cls-1" x1="47.53" y1="1.67" x2="47.8" y2="1.52"/>
  </g>
  <g id="LINE-4" data-name="LINE">
    <line class="cls-2" x1="43.85" y1="3.8" x2="47.53" y2="1.67"/>
  </g>
  <g id="LINE-5" data-name="LINE">
    <line class="cls-2" x1="26.74" y1="13.68" x2="40.01" y2="6.02"/>
  </g>
  <g id="LINE-6" data-name="LINE">
    <line class="cls-2" x1="38.9" y1="34.74" x2="52.17" y2="27.08"/>
  </g>
  <g id="LINE-7" data-name="LINE">
    <line class="cls-2" x1="56.01" y1="24.86" x2="59.96" y2="22.58"/>
  </g>
  <g id="ELLIPSE-12" data-name="ELLIPSE">
    <path class="cls-2" d="M52.17,27.08c.61-.4,1.08-1.02,1.39-1.83"/>
  </g>
  <g id="LINE-8" data-name="LINE">
    <line class="cls-2" x1="36.65" y1="40.21" x2="34.12" y2="30.77"/>
  </g>
  <g id="LINE-9" data-name="LINE">
    <line class="cls-2" x1="34.12" y1="30.77" x2="36.65" y2="40.21"/>
  </g>
  <g id="LINE-10" data-name="LINE">
    <line class="cls-2" x1="33.66" y1="25.51" x2="41.34" y2="24.83"/>
  </g>
  <g id="ARC">
    <path class="cls-2" d="M33.92,40.69c.11.4.47.68.89.68"/>
  </g>
  <g id="LINE-11" data-name="LINE">
    <line class="cls-2" x1="19.85" y1="23.84" x2="19.93" y2="22.92"/>
  </g>
  <g id="CIRCLE-2" data-name="CIRCLE">
    <circle class="cls-2" cx="31.01" cy="17.9" r="3.22"/>
  </g>
  <g id="ARC-2" data-name="ARC">
    <path class="cls-2" d="M35.76,41.37c.51,0,.92-.41.92-.92,0-.08-.01-.16-.03-.24"/>
  </g>
  <g id="ARC-3" data-name="ARC">
    <path class="cls-2" d="M20.93,22.08c-.51-.04-.95.33-1,.84"/>
  </g>
  <g id="SPLINE">
    <path class="cls-2" d="M31.52,31.71c-.43-.06-.57-.06-1,0"/>
  </g>
  <g id="ARC-4" data-name="ARC">
    <path class="cls-2" d="M30.69,22.94c.21.02.43.02.64,0"/>
  </g>
  <g id="LINE-12" data-name="LINE">
    <line class="cls-2" x1="34.12" y1="30.77" x2="33.66" y2="25.51"/>
  </g>
  <g id="ARC-5" data-name="ARC">
    <path class="cls-2" d="M35.76,41.37c.51,0,.92-.41.92-.92,0-.08-.01-.16-.03-.24"/>
  </g>
  <g id="ARC-6" data-name="ARC">
    <path class="cls-2" d="M20.93,22.08c-.51-.04-.95.33-1,.84"/>
  </g>
  <g id="LINE-13" data-name="LINE">
    <line class="cls-2" x1="42.1" y1="22.92" x2="42.18" y2="23.84"/>
  </g>
  <g id="LINE-14" data-name="LINE">
    <line class="cls-2" x1="34.81" y1="41.37" x2="35.76" y2="41.37"/>
  </g>
  <g id="LINE-15" data-name="LINE">
    <line class="cls-2" x1="20.93" y1="22.08" x2="30.69" y2="22.94"/>
  </g>
  <g id="CIRCLE-3" data-name="CIRCLE">
    <circle class="cls-2" cx="31.01" cy="17.9" r="3.22"/>
  </g>
  <g id="LINE-16" data-name="LINE">
    <line class="cls-2" x1="33.66" y1="25.51" x2="34.12" y2="30.77"/>
  </g>
  <g id="LINE-17" data-name="LINE">
    <line class="cls-2" x1="31.52" y1="31.71" x2="33.92" y2="40.69"/>
  </g>
  <g id="LINE-18" data-name="LINE">
    <line class="cls-2" x1="35.76" y1="41.37" x2="34.81" y2="41.37"/>
  </g>
  <g id="LINE-19" data-name="LINE">
    <line class="cls-2" x1="30.69" y1="22.94" x2="20.93" y2="22.08"/>
  </g>
  <g id="ARC-7" data-name="ARC">
    <path class="cls-2" d="M30.69,22.94c.21.02.43.02.64,0"/>
  </g>
  <g id="SPLINE-2" data-name="SPLINE">
    <path class="cls-2" d="M30.51,31.71c.43-.06.57-.06,1,0"/>
  </g>
  <g id="LINE-20" data-name="LINE">
    <line class="cls-2" x1="19.93" y1="22.92" x2="19.85" y2="23.84"/>
  </g>
  <g id="LINE-21" data-name="LINE">
    <line class="cls-2" x1="33.92" y1="40.69" x2="31.52" y2="31.71"/>
  </g>
  <g id="LINE-22" data-name="LINE">
    <line class="cls-2" x1="28.37" y1="25.51" x2="27.91" y2="30.77"/>
  </g>
  <g id="ARC-8" data-name="ARC">
    <path class="cls-2" d="M19.85,23.84c-.04.51.33.95.84,1"/>
  </g>
  <g id="LINE-23" data-name="LINE">
    <line class="cls-2" x1="28.11" y1="40.69" x2="30.51" y2="31.71"/>
  </g>
  <g id="ARC-9" data-name="ARC">
    <path class="cls-2" d="M41.34,24.83c.51-.04.88-.49.84-1"/>
  </g>
  <g id="LINE-24" data-name="LINE">
    <line class="cls-2" x1="27.91" y1="30.77" x2="25.37" y2="40.21"/>
  </g>
  <g id="LINE-25" data-name="LINE">
    <line class="cls-2" x1="30.51" y1="31.71" x2="28.11" y2="40.69"/>
  </g>
  <g id="LINE-26" data-name="LINE">
    <line class="cls-2" x1="20.69" y1="24.83" x2="28.37" y2="25.51"/>
  </g>
  <g id="ARC-10" data-name="ARC">
    <path class="cls-2" d="M25.37,40.21c-.13.49.16,1,.65,1.13.08.02.16.03.24.03"/>
  </g>
  <g id="LINE-27" data-name="LINE">
    <line class="cls-2" x1="27.91" y1="30.77" x2="28.37" y2="25.51"/>
  </g>
  <g id="ARC-11" data-name="ARC">
    <path class="cls-2" d="M19.85,23.84c-.04.51.33.95.84,1"/>
  </g>
  <g id="ARC-12" data-name="ARC">
    <path class="cls-2" d="M41.34,24.83c.51-.04.88-.49.84-1"/>
  </g>
  <g id="LINE-28" data-name="LINE">
    <line class="cls-2" x1="31.33" y1="22.94" x2="41.1" y2="22.08"/>
  </g>
  <g id="LINE-29" data-name="LINE">
    <line class="cls-2" x1="26.26" y1="41.37" x2="27.22" y2="41.37"/>
  </g>
  <g id="LINE-30" data-name="LINE">
    <line class="cls-2" x1="41.1" y1="22.08" x2="31.33" y2="22.94"/>
  </g>
  <g id="LINE-31" data-name="LINE">
    <line class="cls-2" x1="27.22" y1="41.37" x2="26.26" y2="41.37"/>
  </g>
  <g id="LINE-32" data-name="LINE">
    <line class="cls-2" x1="42.18" y1="23.84" x2="42.1" y2="22.92"/>
  </g>
  <g id="LINE-33" data-name="LINE">
    <line class="cls-2" x1="41.34" y1="24.83" x2="33.66" y2="25.51"/>
  </g>
  <g id="ARC-13" data-name="ARC">
    <path class="cls-2" d="M42.1,22.92c-.04-.51-.49-.88-1-.84"/>
  </g>
  <g id="ARC-14" data-name="ARC">
    <path class="cls-2" d="M25.37,40.21c-.13.49.16,1,.65,1.13.08.02.16.03.24.03"/>
  </g>
  <g id="LINE-34" data-name="LINE">
    <line class="cls-2" x1="25.37" y1="40.21" x2="27.91" y2="30.77"/>
  </g>
  <g id="LINE-35" data-name="LINE">
    <line class="cls-2" x1="28.37" y1="25.51" x2="20.69" y2="24.83"/>
  </g>
  <g id="ARC-15" data-name="ARC">
    <path class="cls-2" d="M27.22,41.37c.42,0,.78-.28.89-.68"/>
  </g>
  <g id="ARC-16" data-name="ARC">
    <path class="cls-2" d="M42.1,22.92c-.04-.51-.49-.88-1-.84"/>
  </g>
  <g id="ARC-17" data-name="ARC">
    <path class="cls-2" d="M27.22,41.37c.42,0,.78-.28.89-.68"/>
  </g>
  <g id="ARC-18" data-name="ARC">
    <path class="cls-2" d="M33.92,40.69c.11.4.47.68.89.68"/>
  </g>
</svg>